<?xml version="1.0" encoding="utf-8"?>
<svg xmlns="http://www.w3.org/2000/svg" viewBox="0 0 48 48" width="144" height="144">
  <path d="M3.5 6 A 1.50015 1.50015 0 1 0 3.5 9L6.2558594 9C6.9837923 9 7.5905865 9.5029243 7.7285156 10.21875L8.0273438 11.78125L11.251953 28.716797C11.835068 31.772321 14.527135 34 17.638672 34L36.361328 34C39.472865 34 42.166064 31.773177 42.748047 28.716797L45.972656 11.78125 A 1.50015 1.50015 0 0 0 44.5 10L32 10L32 13L42.6875 13L39.800781 28.15625C39.484764 29.81587 38.051791 31 36.361328 31L17.638672 31C15.948808 31 14.516781 29.8158 14.199219 28.15625L14.199219 28.154297L11.3125 13L23 13L23 10L10.740234 10L10.675781 9.6582031C10.272657 7.5455321 8.4069705 6 6.2558594 6L3.5 6 z M 27.476562 6.9785156 A 1.50015 1.50015 0 0 0 26 8.5L26 21.878906L23.560547 19.439453 A 1.50015 1.50015 0 1 0 21.439453 21.560547L26.439453 26.560547 A 1.50015 1.50015 0 0 0 28.560547 26.560547L33.560547 21.560547 A 1.50015 1.50015 0 1 0 31.439453 19.439453L29 21.878906L29 8.5 A 1.50015 1.50015 0 0 0 27.476562 6.9785156 z M 20 36 A 3 3 0 0 0 20 42 A 3 3 0 0 0 20 36 z M 34 36 A 3 3 0 0 0 34 42 A 3 3 0 0 0 34 36 z" fill="#2B2B2B" />
</svg>