<?xml version="1.0" encoding="utf-8"?>
<svg xmlns="http://www.w3.org/2000/svg" viewBox="0 0 48 48" width="144" height="144">
  <path d="M15.5 5C13.2 5 11.179531 6.1997656 10.019531 8.0097656C10.179531 7.9997656 10.34 8 10.5 8L33.5 8C37.64 8 41 11.36 41 15.5L41 31.5C41 31.66 41.000234 31.820469 40.990234 31.980469C42.800234 30.820469 44 28.8 44 26.5L44 15.5C44 9.71 39.29 5 33.5 5L15.5 5 z M 10.5 10C6.9280619 10 4 12.928062 4 16.5L4 31.5C4 35.071938 6.9280619 38 10.5 38L11 38L11 42.535156C11 44.486408 13.392719 45.706869 14.970703 44.558594L23.988281 38L32.5 38C36.071938 38 39 35.071938 39 31.5L39 16.5C39 12.928062 36.071938 10 32.5 10L10.5 10 z M 10.5 13L32.5 13C34.450062 13 36 14.549938 36 16.5L36 31.5C36 33.450062 34.450062 35 32.5 35L23.5 35 A 1.50015 1.50015 0 0 0 22.617188 35.287109L14 41.554688L14 36.5 A 1.50015 1.50015 0 0 0 12.5 35L10.5 35C8.5499381 35 7 33.450062 7 31.5L7 16.5C7 16.256242 7.0241227 16.018071 7.0703125 15.789062C7.3936413 14.186005 8.7936958 13 10.5 13 z" fill="#2B2B2B" />
</svg>