<?xml version="1.0" encoding="utf-8"?>
<svg xmlns="http://www.w3.org/2000/svg" viewBox="0 0 48 48" width="144" height="144">
  <path d="M24 4C12.954 4 4 12.954 4 24C4 35.046 12.954 44 24 44C35.046 44 44 35.046 44 24C44 12.954 35.046 4 24 4 z M 24 7C24.67756 7 25.342925 7.0514418 26 7.1289062L26 11.169922C25.346298 11.068067 24.681572 11 24 11C23.318428 11 22.653702 11.068067 22 11.169922L22 7.1289062C22.657075 7.0514418 23.32244 7 24 7 z M 19 7.7539062L19 12.003906C17.81961 12.498464 16.726558 13.162097 15.751953 13.964844L12.115234 11.865234C14.028385 9.991145 16.378537 8.5624831 19 7.7539062 z M 29 7.7539062C31.621463 8.5624831 33.971615 9.991145 35.884766 11.865234L32.248047 13.964844C31.273442 13.162097 30.18039 12.498464 29 12.003906L29 7.7539062 z M 24 14C29.540619 14 34 18.459384 34 24C34 29.540616 29.540619 34 24 34C18.459381 34 14 29.540616 14 24C14 18.459384 18.459381 14 24 14 z M 10.142578 14.189453L13.626953 16.201172C12.825459 17.263903 12.184015 18.449389 11.736328 19.728516L8.2226562 17.701172C8.7243235 16.449209 9.3721476 15.274449 10.142578 14.189453 z M 37.857422 14.189453C38.627852 15.274449 39.275676 16.449209 39.777344 17.701172L36.263672 19.728516C35.815985 18.449389 35.174541 17.263903 34.373047 16.201172L37.857422 14.189453 z M 7.3339844 20.652344L11.060547 22.802734C11.024182 23.197614 11 23.595879 11 24C11 24.724326 11.074695 25.430472 11.189453 26.123047L7.5527344 28.222656C7.2048915 26.869548 7 25.460146 7 24C7 22.854067 7.1167957 21.735294 7.3339844 20.652344 z M 40.666016 20.652344C40.883204 21.735294 41 22.854067 41 24C41 25.460146 40.795109 26.869548 40.447266 28.222656L36.810547 26.123047C36.925305 25.430472 37 24.724326 37 24C37 23.595879 36.975818 23.197614 36.939453 22.802734L40.666016 20.652344 z M 12.042969 29.09375C12.575112 30.336352 13.303159 31.473441 14.175781 32.482422L10.664062 34.509766C9.8382882 33.464233 9.1370268 32.32011 8.5722656 31.097656L12.042969 29.09375 z M 35.957031 29.09375L39.427734 31.097656C38.862973 32.32011 38.161712 33.464233 37.335938 34.509766L33.826172 32.480469C34.697982 31.471998 35.425255 30.335495 35.957031 29.09375 z M 31.494141 34.599609L35.210938 36.746094C33.428036 38.316276 31.324687 39.529056 29 40.246094L29 35.996094C29.887321 35.624326 30.7188 35.149834 31.494141 34.599609 z M 16.507812 34.601562C17.28253 35.151101 18.113529 35.624682 19 35.996094L19 40.246094C16.675313 39.529056 14.571964 38.316276 12.789062 36.746094L16.507812 34.601562 z M 22 36.830078C22.653702 36.931933 23.318428 37 24 37C24.681572 37 25.346298 36.931933 26 36.830078L26 40.871094C25.342925 40.948558 24.67756 41 24 41C23.32244 41 22.657075 40.948558 22 40.871094L22 36.830078 z" fill="#2B2B2B" />
</svg>