<svg width="144" height="144" viewBox="0 0 144 144" fill="none" xmlns="http://www.w3.org/2000/svg">
<path d="M81.2226 119.994C87.0551 119.994 92.666 117.728 96.8613 113.672L126.586 84.9434C133.863 77.9088 133.863 66.0912 126.586 59.0566L96.8613 30.3223C92.6672 26.2706 87.0552 23.9979 81.2226 23.9941L31.4999 23.9941C20.7841 23.9941 11.9999 32.7783 11.9999 43.4941L11.9999 100.494C11.9999 111.21 20.7841 119.994 31.4999 119.994L81.2226 119.994ZM81.2226 110.994L31.4999 110.994C25.6498 110.994 20.9999 106.344 20.9999 100.494L20.9999 43.4941C20.9999 37.6439 25.6498 32.9941 31.4999 32.9941L81.2167 32.9941L81.2226 32.9941C84.7239 32.998 88.0849 34.3638 90.6035 36.7969L90.6035 36.791L120.334 65.5254C124.037 69.1049 124.037 74.8893 120.334 78.4687L90.6035 107.203C88.0847 109.639 84.7261 110.994 81.2226 110.994ZM40.541 96.0644C41.7294 96.0364 42.8584 95.5393 43.6816 94.6816L59.9999 78.3633L76.3183 94.6816C76.7378 95.1136 77.2396 95.457 77.7942 95.6915C78.3487 95.926 78.9447 96.0468 79.5468 96.0469C80.4424 96.0467 81.3175 95.7792 82.0603 95.2789C82.803 94.7785 83.3796 94.0679 83.7162 93.238C84.0528 92.4081 84.1341 91.4966 83.9498 90.6202C83.7655 89.7439 83.324 88.9424 82.6816 88.3184L66.3632 72L82.6816 55.6816C83.1135 55.267 83.4583 54.7703 83.6958 54.2207C83.9333 53.6712 84.0588 53.0797 84.0649 52.4811C84.071 51.8824 83.9575 51.2885 83.7312 50.7342C83.5049 50.1799 83.1703 49.6763 82.7469 49.253C82.3236 48.8296 81.82 48.495 81.2657 48.2687C80.7114 48.0424 80.1176 47.929 79.5189 47.9351C78.9202 47.9412 78.3288 48.0666 77.7792 48.3042C77.2296 48.5417 76.733 48.8865 76.3183 49.3184L59.9999 65.6367L43.6816 49.3184C43.2669 48.8865 42.7703 48.5417 42.2207 48.3042C41.6711 48.0666 41.0797 47.9412 40.481 47.9351C39.8823 47.929 39.2885 48.0424 38.7342 48.2687C38.1799 48.495 37.6763 48.8296 37.253 49.253C36.8296 49.6763 36.495 50.1799 36.2687 50.7342C36.0424 51.2885 35.9289 51.8824 35.935 52.481C35.9411 53.0797 36.0666 53.6712 36.3041 54.2207C36.5416 54.7703 36.8864 55.267 37.3183 55.6816L53.6367 72L37.3183 88.3184C36.6639 88.9464 36.2146 89.7576 36.0292 90.6455C35.8438 91.5333 35.9311 92.4565 36.2795 93.294C36.6279 94.1314 37.2212 94.844 37.9817 95.3384C38.7421 95.8328 39.6342 96.0859 40.541 96.0644Z" fill="#2B2B2B"/>
</svg>
