<svg width="144" height="144" viewBox="0 0 144 144" fill="none" xmlns="http://www.w3.org/2000/svg">
<path d="M127.664 131.994C128.387 131.968 129.093 131.768 129.722 131.411C130.351 131.054 130.885 130.55 131.278 129.943C131.671 129.336 131.912 128.643 131.981 127.923C132.05 127.203 131.944 126.477 131.672 125.806L109.857 71.9998L131.672 18.1932C132.016 17.3458 132.094 16.4137 131.895 15.5211C131.696 14.6285 131.23 13.8177 130.558 13.1966C129.887 12.5756 129.042 12.1738 128.137 12.0447C127.232 11.9157 126.308 12.0656 125.49 12.4744L14.4902 67.9744C13.7426 68.3482 13.1139 68.9227 12.6745 69.6337C12.2351 70.3447 12.0023 71.164 12.0023 71.9998C12.0023 72.8356 12.2351 73.6549 12.6745 74.3659C13.1139 75.0769 13.7426 75.6514 14.4902 76.0252L125.49 131.525C126.164 131.861 126.912 132.022 127.664 131.994ZM118.852 118.142L26.5605 71.9998L118.852 25.8572L101.965 67.4998L61.5 67.4998C60.9037 67.4914 60.3117 67.6015 59.7583 67.8239C59.2049 68.0463 58.7013 68.3764 58.2766 68.7951C57.852 69.2138 57.5148 69.7127 57.2846 70.2629C57.0544 70.813 56.9359 71.4034 56.9359 71.9998C56.9359 72.5962 57.0544 73.1866 57.2846 73.7367C57.5148 74.2869 57.852 74.7858 58.2766 75.2045C58.7013 75.6232 59.2049 75.9533 59.7583 76.1757C60.3117 76.3981 60.9037 76.5082 61.5 76.4998L101.965 76.4998L118.852 118.142Z" fill="#2B2B2B"/>
</svg>
